<?xml version="1.0" encoding="utf-8"?>
<!-- Generator: Adobe Illustrator 22.0.1, SVG Export Plug-In . SVG Version: 6.00 Build 0)  -->
<svg version="1.1" id="Layer_1" xmlns="http://www.w3.org/2000/svg" xmlns:xlink="http://www.w3.org/1999/xlink" x="0px" y="0px"
	 viewBox="0 0 512 512" style="enable-background:new 0 0 512 512;" xml:space="preserve">
<style type="text/css">
	.st0{display:none;}
	
		.st1{display:inline;opacity:0.5;fill:none;stroke:#FFFFFF;stroke-width:6;stroke-linecap:round;stroke-linejoin:round;stroke-miterlimit:10;enable-background:new    ;}
	.st2{display:inline;}
	
		.st3{opacity:0.5;fill:none;stroke:#FFFFFF;stroke-width:6;stroke-linecap:round;stroke-linejoin:round;stroke-miterlimit:10;enable-background:new    ;}
	.st4{display:inline;fill:none;stroke:#FFFFFF;stroke-width:6;stroke-miterlimit:10;}
	.st5{fill:#A0A5AA;}
	.st6{display:none;fill:#FFFFFF;}
</style>
<g class="st0">
	<path class="st1" d="M133.3,445V67 M378.7,445V313.8 M369.2,183.9L369.3,67 M426.6,106.4H85.4 M426.6,405.6H85.4 M193,378.1V133.9
		 M222.5,158.4h-55.1"/>
	<g class="st2">
		<path class="st3" d="M222.5,224.3h-55.1 M222.5,273.9h-55.1"/>
	</g>
	<path class="st1" d="M222.5,354.2h-55.1"/>
	<path class="st4" d="M355.4,138.3c9.2,12.7,13.7,27.9,13.7,45.7c0,18.3-4.6,33-13.9,44.1c-5.2,6.2-12.8,11.9-22.8,17.1
		c15.3,5.6,26.8,14.3,34.6,26.4c7.8,12,11.7,26.7,11.7,43.8c0,17.7-4.4,33.6-13.3,47.7c-5.7,9.3-12.7,17.2-21.2,23.5
		c-9.6,7.3-20.8,12.3-33.8,15s-27.1,4.1-42.3,4.1H133.3V106.4h144.6C314.4,106.9,340.2,117.5,355.4,138.3L355.4,138.3z M193,158.4
		v66h72.7c13,0,23.5-2.5,31.6-7.4s12.2-13.7,12.2-26.3c0-13.9-5.4-23.1-16.1-27.6c-9.2-3.1-21-4.7-35.4-4.7H193L193,158.4z
		 M193,273.9v79.8h72.6c13,0,23.1-1.8,30.3-5.3c13.1-6.5,19.7-18.9,19.7-37.4c0-15.6-6.4-26.3-19.1-32.1c-7.1-3.2-17.1-4.9-29.9-5.1
		L193,273.9L193,273.9z"/>
</g>
<path class="st5" d="M423,34.1c-0.1,0.9-0.3,1.6-0.4,2.5c-0.8,4.6-2.4,9-4.5,13.1c-4.2,8.8-9.9,16.6-17,23.4
	c-3,2.9-6.4,5.4-10.1,7.2c-3.2,1.5-6.6,2-10.1,1.6c-1.6-0.1-3.2-0.1-4.9-0.2c-2.9-0.2-5.9-0.5-8.8-0.9c-3-0.4-6-0.8-9-1.1
	c-3.1-0.4-6.4-0.9-9.5-1.4c-3.8-0.6-7.5-1.2-11.2-1.9c-4-0.6-8-1.4-12-2c-2.2-0.4-4.5-0.6-6.8-1c-0.6-0.1-1.2,0-1.8,0
	c-1.2,0-2.1,0.6-2.6,1.8c-0.4,0.9-0.6,1.9-0.8,2.9c-0.1,1.4-0.3,2.8-0.3,4c0,11.9,0,23.6,0,35.5c0,1.2,0.1,2.4,0.4,3.6
	c0.2,1.7,1.5,2.7,3.1,3c1.1,0.2,2.4,0.2,3.6,0.2c13.5,0,26.9,0,40.4,0c11.2,0,22.4,0,33.6,0c1.2,0,2.5,0.1,3.8,0.4
	c1.8,0.2,2.9,1.4,3.1,3.1c0.3,1.4,0.4,2.9,0.4,4.2c0,14.2,0,28.5,0,42.8c0,1.1,0,2.2-0.3,3.2c-0.4,2.8-1.4,3.9-4.2,4.2
	c-1.2,0.1-2.5,0.2-3.8,0.2c-24.1,0-48.4,0-72.5,0c-1.2,0-2.6,0.1-3.9,0.2c-1.9,0.2-3,1.4-3.4,3.3c-0.1,1-0.2,2-0.4,3
	c0,0.8,0,1.5,0,2.2c0,41,0,82,0,123.1c0,4.4-0.4,8.8-0.8,13.1c-0.5,6.7-1.7,13.5-3.2,20.1c-3.8,15.9-10.1,30.8-19.1,44.4
	c-9.1,13.9-20.2,25.8-33.2,36c-6.9,5.5-14.1,10.4-21.8,14.8c-1.2,0.8-2.5,1.4-4,1.7c-2.7,0.6-4.2-0.8-3.6-3.5c0.2-1,0.8-2.1,1.2-3
	c2.8-4.4,5.4-8.8,7.6-13.4c4.2-8.5,7.2-17.5,9.1-26.7c1.1-5.5,1.9-11,2.4-16.5c0.6-6.4,1-12.8,1-19c0.1-10.8,0.2-21.5,0.4-32.4
	c0-85.4,0-170.6,0-256c0-0.8,0-1.4-0.1-2.1c-0.1-1.2-1-1.9-2.2-1.6c-1.6,0.2-3.1,0.9-4.5,1.6c-8.8,4.3-14.9,11.1-18.6,20.1
	c-2,4.8-3.3,9.8-4.1,14.8c-0.9,5.2-1.4,10.6-1.5,15.9c-0.1,5.5-0.2,11-0.2,16.5c0,81.4,0,162.8,0,244.1c0,2.9,0,5.8-0.1,8.6
	c-0.4,7.2-1.6,14.4-3.6,21.4c-3.6,12.1-9.6,23-17.6,32.8c-6.2,7.6-13.5,14.1-21.2,20.1c-9.6,7.4-20,13.5-30.6,19
	c-13.3,6.9-27,12.6-40.9,18.1c-2.4,0.9-4.6,1.9-7.1,2.4c-0.1,0-0.2,0.1-0.4,0.2c-0.9,0-1.8,0-2.5,0c-0.4-0.1-0.7-0.2-1.2-0.4
	c-1.5-0.5-2.5-1.4-3.1-2.9c-0.1-0.2-0.2-0.4-0.4-0.6c0-0.6,0-1.2,0-1.9c0.1-0.1,0.2-0.4,0.4-0.5c0.8-2.6,2.5-4.2,4.9-5.5
	c0.9-0.5,1.8-0.9,2.8-1.2c9.2-3.9,17.9-8.6,25.9-14.8c9-7,16.2-15.3,21.5-25.4c4.9-9.4,7.6-19.5,9-30c0.6-5.2,0.9-10.5,0.9-15.8
	c0-80.6,0-161.3,0-241.9c0-5.4-0.1-10.8-0.6-16.1c-0.5-4.4-1.2-8.8-2.7-13c-1.9-5.1-4.8-9.6-9.1-13c-2.6-2-5.4-3.5-8.5-4.6
	c-2.2-0.9-4.5-2-6.4-3.5c-1.2-0.9-2.3-1.9-3.1-3.3c-0.6-0.9-1-1.9-1.1-3c-0.1-1.9,0.6-3.4,1.9-4.6c1.4-1.4,3-2.4,4.8-3.1
	c2.2-1,4.5-1.9,6.8-2.9c30.5-12.6,59.9-27.4,88.1-44.3c12-7.1,23.8-14.5,35.6-21.9c8.5-5.2,17-10.6,25.8-15.2
	c5.4-2.9,10.8-5.5,16.5-7.5c3.9-1.4,7.9-2.5,12-2.9c1.2-0.1,2.4-0.3,3.6-0.4c0.9,0,1.8,0,2.5,0c0.8,0.1,1.4,0.1,2.1,0.3
	c3.9,0.7,7.6,1.5,11.5,2.4c6.9,1.5,13.6,3.1,20.5,4.6c6,1.3,12,2.4,18,3.5c3.2,0.6,6.5,1.1,9.7,1.5c3.3,0.5,6.5,0.9,9.9,1.1
	c3,0.2,6.1,0.6,9.1,0.7c3.2,0.1,6.4,0.1,9.6,0.2c1.4,0,2.8,0.1,4.1,0.4c4.7,0.9,7.8,4.1,8.2,9c0,0.2,0.1,0.5,0.3,0.9
	C423,31.8,423,33,423,34.1z"/>
<path class="st6" d="M305.8,56c0.3,0.1,0.7,0.2,1,0.2c8.6,0.5,16.9,2.5,25.1,5.1c5.4,1.7,10.7,3.4,16,5.1c3.7,1.2,7.5,2.2,11.3,2.9
	c3.3,0.6,6.5,1,9.9,0.9c1.7,0,3.4,0.1,5.1,0.5c1.1,0.3,2.2,0.7,3.2,1.3c3.2,1.9,4.4,5.2,4,8.3c-0.3,2.6-1.1,5.1-2,7.5
	c-2.8,7.7-6.8,14.6-12.4,20.6c-3.2,3.4-6.9,6.2-11.2,8.2c-3.7,1.7-7.7,2.6-11.8,2.8c-1.1,0.1-2.2-0.1-3.3-0.4c-3.6-1-7.1-2-10.7-3
	c-4.9-1.4-9.8-2.6-14.8-3.4c-3-0.5-6.1-0.8-9.1-0.8c-1.6,0-3,0.5-4.3,1.5s-2.2,2.3-3.1,3.7c-1.3,2.1-2.2,4.4-2.9,6.7
	c-1.1,3.5-1.8,7.1-2.2,10.7c-0.3,2.6-0.5,5.3-0.3,7.9c0.3,3.9,2.2,6.8,5.7,8.6c2.8,1.5,5.8,2,9,1.6c2.9-0.4,5.8-0.6,8.7-1
	c2.1-0.3,4.2-0.3,6.3-0.1c2.8,0.2,5.6,0.4,8.4,0.6c4.2,0.3,8.3-0.1,12.4-0.9c4.1-0.8,8.2-0.4,12.1,1.1c3.1,1.1,5.4,3.2,7.2,5.9
	c1.4,2.2,2.3,4.6,3,7.2c0.8,3.2,1.3,6.4,1.6,9.6c0.4,4.4,0.5,8.9,0.6,13.4c0.1,6.5-4.1,10.7-8.9,12.2c-1.9,0.6-3.9,0.9-5.9,0.6
	c-3.3-0.5-6.7-0.5-10.1-0.4c-4.5,0.1-8.9,0.4-13.4,0.5c-1.1,0-2.2,0-3.3,0c-5.3-0.3-10.6-0.4-15.9,0.3c-2.9,0.4-5.8,1-8.6,2
	c-1.9,0.7-3.8,1.6-5.4,2.9c-2.1,1.7-3.5,4-3.9,6.7c-0.1,0.8-0.2,1.6-0.1,2.4c0.4,3.2,0.9,6.3,1.3,9.5c0.4,2.9,0.8,5.8,1,8.6
	c0.3,3.1,0.5,6.3,0.7,9.4c0.2,3.8,0.3,7.5-0.2,11.3c-0.3,2.2-0.7,4.5-1,6.7c-0.6,4-1.2,7.9-1,12c0.2,2.7,0.4,5.4,0.7,8.1
	c0.4,4.1,0.9,8.3,0.7,12.4c-0.1,1.6-0.3,3.2-0.4,4.8c0,0.5-0.1,1-0.1,1.5c0.1,1.8,0.2,3.5,0.4,5.2c0.2,2.8,0.5,5.7,0.5,8.5
	c0,6.8-1.1,13.4-3.2,19.8c-1.4,4.2-3,8.3-4.5,12.4c-0.7,1.9-1.4,3.8-2,5.6c-1.2,3.5-2.8,6.9-4.7,10.1c-2.5,4.2-5.4,8.2-8.3,12.2
	c-3.5,4.9-7,9.7-10.6,14.6c-0.5,0.7-1.1,1.4-1.7,2.1c-4.7,5.1-9.8,9.7-15.5,13.7c-2.2,1.5-4.4,2.9-6.9,4c-1.6,0.7-3.2,1.3-4.9,1.5
	c-1,0.1-1.9,0-2.8-0.2c-1.4-0.3-2.2-1.2-2.6-2.6c-0.4-1.5-0.2-2.9,0.1-4.3c0.4-1.8,1.1-3.6,1.8-5.2c1.5-3.3,3-6.5,4.6-9.8
	c1.9-3.9,3.8-7.8,5.4-11.9c1.1-2.8,2-5.6,2.4-8.5c0.2-1.5,0.2-3,0-4.5c-0.2-1.3-0.3-2.6-0.5-3.9c-0.5-3.1-0.3-6.2,0.5-9.2
	c0.3-1.2,0.6-2.3,1-3.5c1-3.4,1.2-6.8,0.9-10.3c-0.2-2-0.2-4.1-0.2-6.2c0-1.2,0.2-2.5,0.4-3.7c0.8-3.8,0.4-7.5-0.6-11.1
	c-0.6-2.2-1.2-4.5-1.7-6.7c-0.6-2.3-0.6-4.6-0.4-7c0.3-3.7,0.5-7.4-0.1-11.1c-0.4-2.8-0.5-5.7-0.4-8.6c0.1-3.3,0.2-6.5,0.2-9.8
	c0.1-4,0.1-8-0.4-12c-0.1-0.7,0-1.4,0-2.1c0.2-2.5,0.7-4.8,1.2-7.3c0.4-1.9,0.7-3.7,1-5.6c0.3-2.4,0-4.8-0.3-7.2
	c-0.2-1.4-0.4-2.8-0.5-4.2c-0.2-2.6,0.4-5.1,1-7.6c0.6-2.2,1.2-4.4,1.8-6.7c0.3-1.4,0.5-2.9,0.5-4.3c0-5-0.3-9.9-0.8-14.9
	c-0.4-4.2-1.1-8.3-1.8-12.5c-0.6-3.9-1.1-7.8-1.2-11.8c-0.1-1.9,0-3.7,0.4-5.5c0.7-3.3,0.6-6.6-0.1-9.8c-0.6-2.7-0.9-5.4-0.7-8.2
	c0.2-2.2,0.6-4.3,1-6.4c0.6-2.6,1.2-5.3,1.8-7.9c0.6-2.8,0.5-5.6,0-8.4c-0.4-2.2-0.9-4.4-1.2-6.7c-0.2-1.3-0.3-2.6-0.3-3.9
	c0-0.8,0.2-1.6,0.4-2.4c0.1-0.8,0.4-1.6,0.5-2.3c0.2-1.4-0.2-2.7-1.3-3.7c-0.5-0.5-1.1-0.7-1.8-0.4c-0.8,0.3-1.6,0.6-2.3,1.1
	c-1.9,1-3.6,2.4-5.2,3.8c-4.4,3.8-8.1,8.2-10.7,13.4c-1.3,2.7-2.3,5.4-2.8,8.4c-0.3,2.1-0.5,4.2,0,6.3c0.3,1.3,0.3,2.7,0.1,4
	c-0.3,2.2-0.6,4.5-1,6.7c-0.4,2.8-0.9,5.5-0.8,8.4c0.1,4-0.4,8-1.3,11.9c-0.6,2.9-0.9,5.8-0.5,8.7c0.2,1.2,0.4,2.5,0.6,3.7
	c0.9,3.8,0.7,7.7,0.1,11.5c-0.4,3-0.8,6-0.9,9c0,0.9,0.1,1.9,0.2,2.8c0.4,3.8,0.3,7.7,0.4,11.6c0.1,3.2,0.2,6.3,0.7,9.4
	c0.1,0.5,0.1,1,0.1,1.5c-0.1,3.6-0.3,7.2-0.4,10.8c-0.1,3.2-0.3,6.4-0.5,9.6c-0.1,1.4,0.1,2.8,0.4,4.2c0.6,3.3,1.2,6.5,1.6,9.8
	c0.5,3.5,0.5,7.1-0.1,10.6c-0.6,3.8-0.6,7.7-0.2,11.5c0.3,3.1,0.5,6.2,0.8,9.3c0.2,2.4,0.3,4.9,0.2,7.4c-0.1,2.7-0.6,5.4-1.1,8
	c-0.6,3.1-1.2,6.3-1.8,9.4c-0.3,2-0.4,4-0.3,6c0.1,3.4,0.7,6.8,1.2,10.1c0.3,2.3,0.6,4.7,0.7,7c0,0.8,0,1.6-0.2,2.4
	c-0.3,1.2-0.3,2.5-0.1,3.7c0.3,1.9,0.5,3.8,0.9,5.6c0.7,3.4,1,6.7,0.7,10.2c-0.2,2.3-0.6,4.7-1,7c-0.5,3-1.2,6-1.4,9.1
	c-0.2,2.2-0.9,4.2-1.6,6.2c-1.2,3.1-2.8,6.1-4.5,9c-2.8,4.5-6,8.6-9.5,12.6c-7,7.9-14.8,15-23.4,21.1c-3.1,2.2-6.3,4.1-9.6,5.9
	c-0.7,0.4-1.4,0.8-2,1.3c-2.3,1.7-4.6,3.4-6.9,5.1c-3.7,2.7-7.6,5.2-11.7,7.3c-2.5,1.3-5.1,2.4-7.8,3c-1.3,0.3-2.6,0.5-4,0.5
	c-1.6,0-2.8-0.6-3.7-1.9c-1.6-2.3-1.8-5.2-0.3-7.8c0.4-0.7,1-1.3,1.7-1.6c10.8-5.7,18.4-14.5,24.2-25c3.9-7.1,6.6-14.6,8.2-22.5
	c1.1-5.3,1.5-10.6,1.7-16c0-2.3-0.3-4.5-0.6-6.7c-0.4-2.6-0.4-5.3,0-7.9c0.2-1.2,0.3-2.5,0.5-3.7c0.4-2.7,0-5.4-0.8-8
	c-0.3-1.2-0.7-2.4-1-3.6c-0.6-2.8-0.5-5.6,0.1-8.3c0.3-1.2,0.5-2.3,0.8-3.5c0.6-2.3,0.7-4.7,0.5-7c-0.2-2-0.5-4.1-0.7-6.1
	c-0.2-2.3-0.5-4.6-0.6-6.9c-0.1-1.2,0.1-2.4,0.3-3.6c0.5-3.9,0.7-7.8,0.6-11.7c-0.2-5.1-0.7-10.2-1.2-15.3
	c-0.5-5.3-1.2-10.6-1.5-15.9c-0.3-4.3,0.1-8.6,0.9-12.9c0.7-3.4,1.4-6.8,2.1-10.1c0.8-4,0.8-8,0.3-12s-1.3-7.9-2.1-11.8
	c-0.6-3.1-1-6.1-1.3-9.2c-0.2-2.1,0.2-4.2,0.7-6.2c0.6-2.9,1.2-5.8,1.8-8.7c0.7-3.8,1-7.6,0.6-11.5c-0.5-4.6-0.9-9.3-0.7-14
	c0.1-2.3-0.2-4.5-0.7-6.7c-0.9-4-2.8-7.5-5.7-10.4c-1.7-1.7-3.5-3.1-5.4-4.6c-1.5-1.1-2.9-2.3-4.4-3.5c-1.2-1-2.3-2.1-3.3-3.3
	c-2.3-3-3.3-6.4-3.2-10.1c0-1.1,0.4-2.1,0.9-3c1.4-2.4,3.5-4,6.2-4.7c2.1-0.5,4-1.3,5.8-2.4c2.5-1.4,4.9-2.9,7.3-4.4
	c4-2.5,8-5,12.2-7.1c3.5-1.8,7.1-3.3,10.9-4.3c1.8-0.4,3.6-0.8,5.5-0.8c1.6,0,3.1-0.5,4.5-1c1.6-0.6,3.1-1.4,4.5-2.4
	c1.3-0.8,2.5-1.7,3.8-2.4c1.1-0.7,2.3-1.4,3.5-2.1c1.4-0.8,2.9-1.4,4.5-1.8c2.8-0.6,5.3-1.7,7.8-3.1c2.1-1.2,4.2-2.5,6.3-3.9
	c2.7-1.8,5.3-3.6,7.9-5.4c2.9-2,6-3.8,9.2-5.4c3.5-1.8,6.9-3.9,10.1-6.2c4-2.7,7.9-5.5,11.9-8.2c4.6-3.1,9.4-6,14.5-8.2
	c4.8-2.2,9.7-3.7,14.9-4.5c1.2-0.2,2.4-0.3,3.6-0.4c0.5-0.1,1.1-0.2,1.6-0.3C302.4,56,304.1,56,305.8,56z"/>
</svg>
