<?xml version="1.0" encoding="utf-8"?>
<!-- Generator: Adobe Illustrator 16.0.0, SVG Export Plug-In . SVG Version: 6.00 Build 0)  -->
<!DOCTYPE svg PUBLIC "-//W3C//DTD SVG 1.1//EN" "http://www.w3.org/Graphics/SVG/1.1/DTD/svg11.dtd">
<svg version="1.1" id="Layer_1" xmlns="http://www.w3.org/2000/svg" xmlns:xlink="http://www.w3.org/1999/xlink" x="0px" y="0px"
	 width="5000px" height="5000px" viewBox="0 0 5000 5000" enable-background="new 0 0 5000 5000" xml:space="preserve">
<path display="none" d="M4064,422c-1.031,7.842-1.831,15.722-3.132,23.519c-7.241,43.412-22.586,84.166-41.783,123.477
	c-40.138,82.192-92.383,155.751-158.808,218.874c-28.369,26.961-59.308,50.485-94.827,67.592
	c-29.999,14.448-61.534,18.272-94.331,15.387c-15.247-1.341-30.59-1.602-45.842-2.891c-27.508-2.325-55.018-4.724-82.459-7.705
	c-28.097-3.052-56.146-6.586-84.154-10.377c-29.651-4.012-59.264-8.359-88.831-12.952c-35.146-5.46-70.244-11.221-105.327-17.065
	c-37.381-6.226-74.691-12.884-112.089-18.994c-20.99-3.429-42.08-6.276-63.168-9.058c-5.576-0.736-11.313-0.375-16.976-0.319
	c-11.475,0.114-20.166,5.468-24.444,15.876c-3.503,8.518-6.156,17.655-7.415,26.762c-1.727,12.494-2.426,25.219-2.445,37.847
	c-0.178,110.663-0.207,221.327,0.046,331.99c0.026,11.233,1.552,22.576,3.522,33.666c2.904,16.359,13.83,25.624,29.73,28.225
	c11.107,1.817,22.497,2.625,33.763,2.641c125.995,0.18,251.993,0.109,377.989,0.124c104.997,0.012,209.993-0.056,314.989,0.225
	c11.578,0.031,23.263,1.465,34.698,3.417c16.079,2.744,26.506,12.621,29.12,28.826c2.112,13.097,3.538,26.464,3.563,39.715
	c0.256,133.329,0.194,266.659,0.083,399.988c-0.009,10.314-0.427,20.711-1.775,30.921c-3.453,26.139-12.896,36.487-40.259,39.941
	c-11.523,1.455-23.255,1.759-34.892,1.765c-226.327,0.097-452.654,0.037-678.981,0.174c-12.271,0.008-24.633,0.775-36.789,2.408
	c-17.336,2.329-28.508,12.407-31.725,29.894c-1.681,9.132-2.426,18.469-3.07,27.75c-0.481,6.967-0.143,13.993-0.143,20.993
	c-0.021,384.322,0.176,768.645-0.373,1152.968c-0.059,40.894-3.777,81.838-7.038,122.66
	c-5.099,63.815-15.987,126.795-30.723,189.066c-35.304,149.183-94.702,288.064-178.916,416.241
	c-85.142,129.587-190.111,240.884-311.425,337.039c-64.33,50.991-132.211,96.771-203.392,137.659
	c-11.851,6.809-23.916,13.051-37.359,16.297c-25.289,6.107-39.76-7.207-33.781-32.442c2.33-9.832,6.751-19.616,12.166-28.194
	c25.615-40.588,49.962-81.851,71.31-124.871c39.586-79.775,67.836-163.405,85.647-250.595
	c10.469-51.249,17.585-102.981,22.389-155.075c5.48-59.408,9.134-118.906,9.849-178.554c1.212-100.979,2.917-201.963,2.947-302.945
	c0.24-799.311,0.136-1598.621,0.091-2397.932c-0.001-6.646-0.209-13.351-1.092-19.924c-1.632-12.137-9.047-17.322-21.052-15.261
	c-14.9,2.558-28.733,8.265-42.211,14.827c-82.507,40.168-139.684,103.968-174.987,188.059
	c-18.655,44.435-30.366,90.795-38.129,138.254c-8.077,49.379-12.772,99.079-13.965,149.079
	c-1.231,51.636-2.79,103.285-2.801,154.929c-0.172,762.312-0.098,1524.623-0.151,2286.935c-0.002,26.992,0.264,54.041-1.3,80.967
	c-3.95,68.006-14.811,134.927-34.206,200.355c-33.708,113.719-90.013,215.217-165.382,306.446
	c-58.682,71.03-126.035,132.904-199.205,188.611c-90.11,68.604-186.879,126.53-287.32,178.509
	c-124.247,64.298-252.832,118.844-382.925,169.98c-21.959,8.631-43.683,18.019-67.068,22.434c-1.218,0.23-2.295,1.211-3.438,1.842
	h-24c-3.735-1.346-7.429-2.818-11.211-4.012c-13.767-4.338-23.881-12.562-29.005-26.426c-0.755-2.041-2.498-3.717-3.784-5.562v-18
	c1.15-1.57,2.844-2.979,3.367-4.736c7.237-24.297,23.962-40.295,45.562-51.802c8.195-4.364,16.898-7.806,25.471-11.426
	c86.235-36.407,167.991-80.679,242.148-138.212c83.8-65.016,152.151-143.188,201.511-237.455
	c46.147-88.129,71.895-182.387,83.867-280.691c5.967-48.992,8.306-98.215,8.301-147.585
	c-0.069-755.33-0.053-1510.661-0.039-2265.992c0.001-50.327-0.732-100.61-5.944-150.737c-4.318-41.528-11.718-82.369-26.025-121.741
	c-17.553-48.303-44.778-89.848-85.455-121.956c-24.007-18.951-50.914-32.605-79.212-43.866
	c-21.407-8.518-41.82-19.021-60.298-32.955c-11.237-8.475-21.435-18.016-29.159-29.916c-5.508-8.486-9.302-17.6-10.082-27.853
	c-1.313-17.25,5.866-31.096,17.286-43.138c12.593-13.276,28.08-22.444,44.681-29.617c21.06-9.101,42.39-17.576,63.591-26.351
	c285.223-118.047,560.368-256.278,825.375-414.467c112.072-66.898,222.625-136.345,333.666-204.961
	c79.594-49.184,158.809-98.988,241.279-143.314c49.866-26.803,100.763-51.385,154.288-70.14
	c36.487-12.785,73.634-22.925,112.181-27.277c11.214-1.266,22.426-2.541,33.639-3.812h24c6.559,0.944,13.185,1.564,19.666,2.886
	c35.802,7.303,71.657,14.378,107.328,22.279c63.892,14.152,127.533,29.451,191.527,43.112
	c55.873,11.929,112.015,22.655,168.181,33.146c30.368,5.672,60.971,10.216,91.587,14.4c30.626,4.185,61.363,7.629,92.118,10.763
	c28.45,2.899,56.95,5.642,85.497,7.197c29.912,1.63,59.916,1.495,89.859,2.677c12.915,0.511,25.941,1.487,38.63,3.818
	c44.912,8.251,72.522,38.515,77.735,84.036c0.298,2.6,1.232,5.126,1.871,7.686V422z"/>
<path fill-rule="evenodd" clip-rule="evenodd" fill="#CCCCCC" d="M3579.936,1699.756c67.887,27.936,132.566,52.361,195.426,80.801
	c233.779,105.758,440.316,248.697,602.703,450.061c162.324,201.289,257.854,430.539,280.498,688.49
	c36.416,414.785-95.771,779.6-341.277,1106.431c-292.246,389.067-684.754,634.898-1144.275,780.587
	c-38.039,12.058-77.596,19.848-114.736,34.088c-67.74,25.966-134.293,8.694-201.625,0.656
	c-162.318-19.357-324.346-43.625-487.244-54.841c-214.912-14.806-430.662-28.038-645.852-25.421
	c-247.029,3.005-494.166,19.793-740.626,38.777c-173.381,13.363-345.619,41.235-518.606,60.469
	c-27.109,3.018-56.867-1.167-83.002-9.523c-49.699-15.891-60.853-61.049-26.547-99.978c13.011-14.765,29.188-27.638,45.983-38.038
	c364.635-225.887,573.412-555.626,643.974-974.645c17.12-101.662,25.565-205.93,26.024-309.055
	c2.479-553.879,5.111-1107.812-1.015-1661.629c-2.079-187.594,60.103-344.58,169.195-489.059
	c158.662-210.135,358.316-376.59,570.818-528.486c302.395-216.156,625.584-394.641,966.883-542.779
	c170.895-74.17,340.643-77.119,517.111-39.488c210.77,44.949,403.922,125.736,562.428,276.023
	c138.119,130.957,215.84,289.574,207.496,483.328c-5.537,128.561-50.531,245.498-115.26,355.303
	c-80.965,137.346-187.455,253.27-304.518,360.168C3623.361,1660.738,3602.643,1679.268,3579.936,1699.756z M1417.412,4093.154
	c21.967,0,32.996,0.614,43.939-0.097c177.383-11.533,354.682-31.291,532.145-32.88c223.562-1.995,447.482,6.561,670.834,18.35
	c268.131,14.15,533.043,55.13,794.82,115.799c14.793,3.433,35.076-1.464,48.41-9.647c91.83-56.353,173.631-125.178,247.076-204.105
	c278.439-299.235,314.627-725.739,91.703-1066.771c-132.871-203.256-317.516-341.396-539.154-433.059
	c-116.656-48.252-238.518-78.127-363.855-94.604c-34.682-4.553-48.459,9.924-50.861,40.869c-1.637,21.111-1.332,42.381-1.871,63.576
	c-6.686,263.951-73.84,510.633-211.053,737.154c-168.816,278.705-410.031,479.053-690.459,636.778
	c-9.174,5.159-18.953,11.284-28.959,12.403c-13.191,1.484-31.227,3.211-39.129-3.999c-7.684-7.002-9.535-26.381-6.203-38.128
	c5.318-18.749,15.74-36.512,26.271-53.258c121.068-192.518,181.205-405.547,198.076-629.389
	c14.682-194.783,20.48-390.574,21.557-585.971c2.863-517.318,1.043-1034.664,1.074-1552.002
	c0.004-64.812-9.797-71.373-69.125-46.084c-8.639,3.68-16.943,8.189-25.256,12.596c-118.934,63.045-186.453,165.791-222.713,291.611
	c-38.559,133.811-42.447,271.736-42.709,409.488c-0.979,509.086-0.004,1018.174-1.475,1527.26
	c-0.174,59.695-7.473,119.949-17.467,178.926c-42.066,248.262-156.449,461.049-323.09,647.572
	C1446.385,4050.71,1435.588,4068.341,1417.412,4093.154z M2891.344,1435.045c0,180.32-0.029,360.643,0.02,540.957
	c0.021,80.918,12.135,87.678,84.619,48.369c108.105-58.617,208.934-127.863,299.359-211.143
	c126.186-116.193,233.738-246.246,281.943-415.152c45.668-160.051,10.621-299.24-121.098-405.641
	c-145.701-117.699-321.051-155.764-501.785-175.791c-22.135-2.453-35.932,9.578-38.832,31.898
	c-2.127,16.27-4.02,32.713-4.047,49.072C2891.246,1076.764,2891.344,1255.904,2891.344,1435.045z"/>
</svg>
