<?xml version="1.0" encoding="utf-8"?>
<!-- Generator: Adobe Illustrator 16.0.0, SVG Export Plug-In . SVG Version: 6.00 Build 0)  -->
<!DOCTYPE svg PUBLIC "-//W3C//DTD SVG 1.1//EN" "http://www.w3.org/Graphics/SVG/1.1/DTD/svg11.dtd">
<svg version="1.1" id="Layer_1" xmlns="http://www.w3.org/2000/svg" xmlns:xlink="http://www.w3.org/1999/xlink" x="0px" y="0px"
	 width="612px" height="792px" viewBox="0 0 612 792" enable-background="new 0 0 612 792" xml:space="preserve">
<g>
	<g>
		<defs>
			<path id="SVGID_1_" d="M529.523,696.023H82.477c-42.075,0-76.5-34.425-76.5-76.5V172.477c0-42.075,34.425-76.5,76.5-76.5h447.047
				c42.075,0,76.5,34.425,76.5,76.5v447.047C606.023,661.599,571.599,696.023,529.523,696.023z"/>
		</defs>
		<clipPath id="SVGID_2_">
			<use xlink:href="#SVGID_1_"  overflow="visible"/>
		</clipPath>
		<g clip-path="url(#SVGID_2_)">
			<path fill="#1A9BD7" d="M-38.011,91.076c-2.869-1.913,7.291-1.195,12.312-1.195c227.707,0,455.533,0,683.24-0.12
				c16.615,0,24.982,0.239,21.157,2.988c-1.075,0.717-0.119,1.554-0.119,2.391c0,201.291-0.12,402.581,0.956,603.872
				c0,4.781-9.682,5.379-38.848,5.379c-216.71-0.239-433.54-0.239-650.25,0c-25.938,0-29.046-0.956-28.927-4.303
				c0.957-34.784,0.598-69.567,0.598-104.352c101.482,0,202.845,0.12,304.327,0.12H632.56c18.767,0,38.848,0.598,38.728-3.944
				c-1.314-32.513-1.554-65.145-2.271-97.657c5.14-34.066,2.749-68.014,1.195-102.08V290.693c0.837-2.151,2.391-4.303,2.391-6.574
				c0.119-29.405,0.239-58.809,0-88.214c0-2.988-2.032-5.977-3.108-8.845c0.479-30.839,0.598-61.559,2.152-92.398
				c0.238-4.184-16.137-3.706-34.187-3.706C412.144,91.076,187.066,91.076-38.011,91.076z"/>
			<path fill="#FCB816" d="M678.938,187.06c1.076,2.988,3.107,5.977,3.228,8.845c0.239,29.405,0.239,58.809,0,88.214
				c0,2.152-1.554,4.303-2.391,6.574c-10.878-0.12-21.874-0.478-32.752-0.478H-37.892V187.657
				c5.499,0.119,10.997,0.358,16.376,0.358h668.777C658.139,188.016,669.494,188.255,678.938,187.06z"/>
			<path fill="#E43A39" d="M679.654,392.294c1.674,34.067,4.064,68.013-1.195,102.08c-80.563-0.119-161.008-0.358-241.572-0.239
				c-158.259,0-316.638,0.239-474.897,0.359V391.936c158.618,0,317.236,0,475.854,0.12
				C518.407,391.936,599.091,392.056,679.654,392.294L679.654,392.294z"/>
			<path fill="#F58320" d="M679.654,392.294c-80.684-0.12-161.247-0.358-241.931-0.358c-158.618-0.12-317.236-0.12-475.854-0.12
				V290.454h684.914c10.878,0,21.875,0.358,32.752,0.478C679.654,324.64,679.654,358.467,679.654,392.294L679.654,392.294z"/>
			<path fill="#973D97" d="M-38.011,494.255l474.897-0.358c80.564,0,161.009,0.238,241.572,0.238
				c0.598,32.513,0.957,65.145,2.271,97.657c0.239,4.542-20.201,3.944-39.206,3.944H270.499c-102.797,0-205.594-0.119-308.391-0.119
				C-38.011,561.909-38.011,528.082-38.011,494.255z"/>
			<path fill="#60BB47" d="M678.938,187.06c-9.443,1.195-20.799,0.956-31.795,0.956H-21.635c-5.499,0-10.997-0.239-16.375-0.358
				V91.076c228.065,0,456.251,0,684.316-0.12c18.407,0,34.903-0.478,34.664,3.706C679.535,125.501,679.416,156.34,678.938,187.06z"
				/>
		</g>
	</g>
</g>
<g>
	<g>
		<defs>
			<path id="SVGID_3_" d="M529.523,696.023H82.477c-42.075,0-76.5-34.425-76.5-76.5V172.477c0-42.075,34.425-76.5,76.5-76.5h447.047
				c42.075,0,76.5,34.425,76.5,76.5v447.047C606.023,661.599,571.599,696.023,529.523,696.023z"/>
		</defs>
		<clipPath id="SVGID_4_">
			<use xlink:href="#SVGID_3_"  overflow="visible"/>
		</clipPath>
		<path clip-path="url(#SVGID_4_)" fill="#388AC9" d="M0,90h612v612H0V90z"/>
	</g>
</g>
<g>
	
		<path id="a" fill="none" stroke="#FFFFFF" stroke-width="8" stroke-linecap="round" stroke-linejoin="round" stroke-miterlimit="10" d="
		M529.523,696.023H82.477c-42.075,0-76.5-34.425-76.5-76.5V172.477c0-42.075,34.425-76.5,76.5-76.5h447.047
		c42.075,0,76.5,34.425,76.5,76.5v447.047C606.023,661.599,571.599,696.023,529.523,696.023z"/>
</g>
<g display="none">
	
		<path display="inline" opacity="0.5" fill="none" stroke="#FFFFFF" stroke-width="6" stroke-linecap="round" stroke-linejoin="round" stroke-miterlimit="10" enable-background="new    " d="
		M159.335,621.914V170.086 M452.665,621.914V465.089 M441.31,309.818l0.119-139.732 M509.92,217.181H102.08 M509.92,574.818H102.08
		 M230.695,541.947V250.052 M265.957,279.337h-65.862"/>
	<g display="inline">
		
			<path opacity="0.5" fill="none" stroke="#FFFFFF" stroke-width="6" stroke-linecap="round" stroke-linejoin="round" stroke-miterlimit="10" enable-background="new    " d="
			M265.957,358.108h-65.862 M265.957,417.396h-65.862"/>
	</g>
	
		<path display="inline" opacity="0.5" fill="none" stroke="#FFFFFF" stroke-width="6" stroke-linecap="round" stroke-linejoin="round" stroke-miterlimit="10" enable-background="new    " d="
		M265.957,513.38h-65.862"/>
	<path display="inline" fill="none" stroke="#FFFFFF" stroke-width="6" stroke-miterlimit="10" d="M424.814,255.312
		c10.996,15.181,16.375,33.35,16.375,54.626c0,21.874-5.498,39.445-16.614,52.713c-6.216,7.411-15.3,14.224-27.253,20.44
		c18.288,6.693,32.034,17.093,41.357,31.556c9.323,14.344,13.985,31.915,13.985,52.355c0,21.156-5.26,40.162-15.897,57.016
		c-6.813,11.117-15.181,20.56-25.341,28.09c-11.476,8.727-24.862,14.703-40.401,17.93c-15.539,3.228-32.394,4.901-50.562,4.901
		H159.335V217.181h172.843C375.807,217.779,406.646,230.449,424.814,255.312L424.814,255.312z M230.695,279.337v78.891h86.899
		c15.539,0,28.09-2.988,37.771-8.845c9.683-5.857,14.583-16.376,14.583-31.437c0-16.615-6.455-27.612-19.244-32.991
		c-10.997-3.706-25.102-5.618-42.314-5.618H230.695L230.695,279.337z M230.695,417.396v95.386h86.779
		c15.539,0,27.612-2.151,36.219-6.335c15.658-7.77,23.547-22.592,23.547-44.705c0-18.646-7.649-31.437-22.83-38.369
		c-8.486-3.825-20.439-5.857-35.74-6.097L230.695,417.396L230.695,417.396z"/>
</g>
<path display="none" fill="#FFFFFF" d="M465.693,183.832c-0.119,0.837-0.238,1.554-0.358,2.391
	c-0.717,4.423-2.271,8.606-4.303,12.551c-4.064,8.367-9.443,15.897-16.257,22.353c-2.868,2.749-6.096,5.14-9.682,6.933
	c-3.107,1.435-6.335,1.913-9.682,1.554c-1.555-0.119-3.108-0.119-4.662-0.239c-2.749-0.239-5.618-0.478-8.367-0.837
	c-2.869-0.358-5.737-0.717-8.606-1.076c-2.988-0.358-6.096-0.837-9.084-1.315c-3.586-0.598-7.172-1.195-10.758-1.793
	c-3.825-0.598-7.65-1.315-11.476-1.913c-2.151-0.358-4.303-0.598-6.454-0.956c-0.598-0.12-1.195,0-1.674,0
	c-1.195,0-2.032,0.598-2.51,1.673c-0.358,0.837-0.598,1.793-0.718,2.75c-0.119,1.314-0.238,2.629-0.238,3.825
	c0,11.355,0,22.591,0,33.947c0,1.195,0.119,2.271,0.358,3.467c0.239,1.673,1.435,2.629,2.988,2.869
	c1.075,0.239,2.271,0.239,3.466,0.239c12.91,0,25.699,0,38.609,0c10.758,0,21.396,0,32.153,0c1.195,0,2.391,0.12,3.586,0.359
	c1.674,0.239,2.749,1.315,2.988,2.988c0.239,1.315,0.358,2.749,0.358,4.064c0,13.626,0,27.253,0,40.88c0,1.076,0,2.151-0.239,3.107
	c-0.358,2.63-1.314,3.706-4.063,4.064c-1.195,0.119-2.391,0.239-3.586,0.239c-23.069,0-46.259,0-69.328,0
	c-1.195,0-2.511,0.12-3.706,0.239c-1.793,0.239-2.868,1.315-3.227,3.108c-0.12,0.956-0.239,1.912-0.359,2.869
	c0,0.717,0,1.434,0,2.151c0,39.207,0,78.413,0,117.739c0,4.184-0.358,8.367-0.717,12.551c-0.479,6.454-1.674,12.909-3.107,19.244
	c-3.586,15.181-9.683,29.404-18.289,42.434c-8.726,13.268-19.363,24.623-31.795,34.425c-6.574,5.26-13.507,9.921-20.798,14.104
	c-1.195,0.718-2.391,1.315-3.825,1.674c-2.629,0.598-4.064-0.717-3.466-3.347c0.239-0.956,0.717-2.032,1.195-2.869
	c2.63-4.184,5.14-8.367,7.292-12.79c4.064-8.128,6.933-16.734,8.726-25.579c1.076-5.26,1.793-10.519,2.271-15.778
	c0.598-6.096,0.956-12.192,0.956-18.169c0.12-10.279,0.239-20.56,0.358-30.958c0-81.64,0-163.161,0-244.8
	c0-0.717,0-1.315-0.119-2.032c-0.12-1.195-0.957-1.793-2.152-1.554c-1.554,0.239-2.988,0.836-4.303,1.554
	c-8.367,4.064-14.224,10.638-17.81,19.245c-1.913,4.542-3.108,9.323-3.944,14.104c-0.837,5.021-1.315,10.16-1.435,15.181
	c-0.12,5.259-0.239,10.519-0.239,15.778c0,77.815,0,155.629,0,233.445c0,2.749,0,5.498-0.12,8.248
	c-0.359,6.933-1.554,13.746-3.466,20.439c-3.467,11.595-9.204,21.994-16.854,31.317c-5.977,7.291-12.91,13.507-20.32,19.244
	c-9.204,7.053-19.125,12.909-29.285,18.169c-12.67,6.574-25.819,12.072-39.087,17.332c-2.271,0.837-4.422,1.793-6.813,2.271
	c-0.12,0-0.239,0.119-0.359,0.238c-0.836,0-1.673,0-2.391,0c-0.358-0.119-0.717-0.238-1.195-0.358
	c-1.434-0.478-2.391-1.314-2.988-2.749c-0.12-0.239-0.239-0.358-0.358-0.598c0-0.598,0-1.195,0-1.793
	c0.12-0.119,0.239-0.358,0.358-0.479c0.717-2.51,2.391-4.063,4.662-5.259c0.837-0.479,1.674-0.837,2.63-1.195
	c8.845-3.706,17.093-8.248,24.743-14.104c8.606-6.694,15.539-14.583,20.559-24.266c4.662-8.965,7.292-18.646,8.606-28.688
	c0.598-5.02,0.836-10.04,0.836-15.061c0-77.098,0-154.195,0-231.293c0-5.14-0.119-10.28-0.598-15.419
	c-0.478-4.184-1.195-8.367-2.629-12.431c-1.793-4.901-4.542-9.204-8.726-12.432c-2.51-1.912-5.14-3.347-8.128-4.422
	c-2.151-0.837-4.303-1.913-6.096-3.347c-1.195-0.836-2.151-1.793-2.988-3.107c-0.598-0.837-0.956-1.793-1.076-2.869
	c-0.12-1.793,0.598-3.227,1.793-4.422c1.315-1.315,2.869-2.271,4.542-2.988c2.152-0.957,4.303-1.793,6.455-2.75
	c29.166-12.072,57.255-26.177,84.27-42.314c11.475-6.813,22.711-13.866,34.066-20.918c8.128-5.02,16.257-10.16,24.624-14.583
	c5.14-2.75,10.279-5.26,15.778-7.172c3.705-1.315,7.53-2.391,11.475-2.75c1.195-0.12,2.271-0.239,3.467-0.358
	c0.836,0,1.673,0,2.391,0c0.717,0.12,1.314,0.12,2.031,0.239c3.706,0.717,7.292,1.435,10.997,2.271
	c6.574,1.434,13.029,2.988,19.604,4.422c5.737,1.195,11.475,2.271,17.212,3.347c3.108,0.598,6.216,1.076,9.324,1.434
	c3.107,0.478,6.215,0.837,9.442,1.076c2.869,0.239,5.857,0.598,8.726,0.717c3.108,0.12,6.097,0.12,9.204,0.239
	c1.315,0,2.63,0.12,3.944,0.358c4.542,0.837,7.411,3.945,7.89,8.606c0,0.239,0.119,0.478,0.239,0.836
	C465.693,181.681,465.693,182.756,465.693,183.832z"/>
<path display="none" fill="#FFFFFF" d="M365.526,156.938c0.358,0.12,0.837,0.239,1.195,0.239c10.28,0.598,20.201,2.988,30.003,6.096
	c6.454,2.032,12.789,4.064,19.125,6.096c4.422,1.435,8.965,2.63,13.507,3.466c3.944,0.717,7.77,1.195,11.833,1.076
	c2.032,0,4.064,0.119,6.097,0.598c1.314,0.358,2.63,0.836,3.825,1.554c3.824,2.271,5.259,6.216,4.781,9.921
	c-0.359,3.108-1.315,6.096-2.391,8.965c-3.348,9.204-8.129,17.452-14.822,24.624c-3.825,4.064-8.248,7.411-13.388,9.802
	c-4.423,2.032-9.204,3.108-14.104,3.347c-1.314,0.12-2.63-0.12-3.944-0.478c-4.304-1.195-8.487-2.391-12.79-3.586
	c-5.857-1.673-11.714-3.108-17.69-4.064c-3.586-0.598-7.292-0.957-10.878-0.957c-1.912,0-3.586,0.598-5.14,1.793
	s-2.63,2.75-3.705,4.423c-1.554,2.51-2.63,5.259-3.467,8.009c-1.314,4.184-2.151,8.486-2.63,12.79
	c-0.358,3.108-0.598,6.335-0.358,9.443c0.358,4.662,2.63,8.128,6.813,10.28c3.347,1.793,6.933,2.391,10.758,1.913
	c3.467-0.478,6.933-0.717,10.399-1.195c2.51-0.358,5.021-0.358,7.53-0.12c3.347,0.239,6.693,0.478,10.041,0.717
	c5.02,0.358,9.921-0.12,14.821-1.076c4.901-0.957,9.802-0.478,14.464,1.315c3.705,1.314,6.454,3.825,8.605,7.052
	c1.674,2.629,2.75,5.499,3.586,8.606c0.957,3.825,1.555,7.65,1.913,11.475c0.478,5.259,0.598,10.638,0.717,16.017
	c0.12,7.77-4.9,12.79-10.638,14.583c-2.271,0.717-4.662,1.076-7.053,0.717c-3.944-0.598-8.009-0.598-12.072-0.478
	c-5.379,0.119-10.639,0.478-16.018,0.598c-1.314,0-2.63,0-3.944,0c-6.335-0.359-12.671-0.479-19.006,0.358
	c-3.466,0.478-6.933,1.195-10.279,2.391c-2.271,0.837-4.542,1.913-6.455,3.466c-2.51,2.032-4.184,4.781-4.661,8.009
	c-0.12,0.956-0.239,1.913-0.12,2.869c0.479,3.825,1.076,7.53,1.554,11.355c0.479,3.466,0.957,6.933,1.195,10.28
	c0.359,3.706,0.598,7.53,0.837,11.236c0.239,4.542,0.358,8.965-0.239,13.507c-0.358,2.63-0.836,5.379-1.195,8.009
	c-0.717,4.781-1.434,9.443-1.195,14.344c0.239,3.228,0.479,6.455,0.837,9.682c0.479,4.901,1.076,9.922,0.837,14.822
	c-0.119,1.912-0.358,3.825-0.478,5.737c0,0.598-0.12,1.195-0.12,1.793c0.12,2.151,0.239,4.184,0.479,6.216
	c0.239,3.347,0.598,6.813,0.598,10.16c0,8.128-1.315,16.018-3.825,23.667c-1.674,5.021-3.586,9.921-5.379,14.822
	c-0.837,2.271-1.674,4.542-2.391,6.693c-1.435,4.184-3.347,8.248-5.618,12.073c-2.988,5.02-6.455,9.801-9.921,14.582
	c-4.184,5.857-8.367,11.595-12.671,17.452c-0.598,0.837-1.314,1.673-2.031,2.51c-5.618,6.097-11.714,11.595-18.528,16.376
	c-2.629,1.793-5.259,3.467-8.248,4.781c-1.913,0.837-3.825,1.554-5.857,1.793c-1.195,0.119-2.271,0-3.347-0.239
	c-1.674-0.358-2.63-1.435-3.108-3.107c-0.478-1.793-0.239-3.467,0.12-5.14c0.478-2.152,1.314-4.304,2.151-6.216
	c1.793-3.944,3.586-7.77,5.499-11.714c2.271-4.662,4.542-9.324,6.455-14.225c1.315-3.347,2.391-6.693,2.869-10.16
	c0.239-1.793,0.239-3.586,0-5.379c-0.239-1.554-0.358-3.107-0.598-4.662c-0.598-3.705-0.358-7.41,0.598-10.996
	c0.359-1.435,0.717-2.75,1.195-4.184c1.195-4.064,1.435-8.129,1.076-12.312c-0.239-2.391-0.239-4.9-0.239-7.41
	c0-1.435,0.239-2.988,0.478-4.423c0.956-4.542,0.478-8.965-0.717-13.269c-0.717-2.629-1.435-5.379-2.032-8.008
	c-0.717-2.75-0.717-5.499-0.478-8.367c0.359-4.423,0.598-8.846-0.12-13.269c-0.478-3.347-0.598-6.813-0.478-10.279
	c0.12-3.944,0.239-7.77,0.239-11.714c0.12-4.781,0.12-9.562-0.478-14.344c-0.12-0.837,0-1.674,0-2.511
	c0.239-2.988,0.836-5.737,1.434-8.726c0.478-2.271,0.837-4.423,1.195-6.694c0.359-2.869,0-5.737-0.358-8.606
	c-0.239-1.674-0.478-3.347-0.598-5.021c-0.239-3.108,0.478-6.096,1.195-9.084c0.717-2.629,1.434-5.259,2.151-8.008
	c0.359-1.674,0.598-3.467,0.598-5.14c0-5.977-0.358-11.833-0.956-17.81c-0.478-5.021-1.315-9.921-2.152-14.941
	c-0.717-4.662-1.314-9.323-1.434-14.104c-0.12-2.271,0-4.423,0.478-6.574c0.837-3.945,0.717-7.889-0.12-11.714
	c-0.717-3.227-1.076-6.455-0.836-9.801c0.239-2.63,0.717-5.14,1.195-7.65c0.717-3.107,1.434-6.335,2.151-9.443
	c0.717-3.347,0.598-6.694,0-10.041c-0.478-2.63-1.076-5.259-1.435-8.009c-0.239-1.554-0.358-3.107-0.358-4.662
	c0-0.956,0.239-1.913,0.478-2.869c0.12-0.956,0.478-1.913,0.598-2.749c0.239-1.674-0.239-3.228-1.554-4.423
	c-0.598-0.598-1.315-0.837-2.152-0.478c-0.956,0.358-1.912,0.717-2.749,1.315c-2.271,1.195-4.303,2.869-6.216,4.542
	c-5.259,4.542-9.682,9.802-12.79,16.017c-1.554,3.228-2.75,6.455-3.347,10.041c-0.358,2.51-0.598,5.021,0,7.531
	c0.359,1.554,0.359,3.227,0.12,4.781c-0.358,2.629-0.717,5.379-1.195,8.008c-0.478,3.347-1.076,6.574-0.956,10.041
	c0.12,4.781-0.478,9.562-1.554,14.224c-0.717,3.466-1.076,6.933-0.598,10.399c0.239,1.435,0.479,2.988,0.717,4.423
	c1.076,4.542,0.837,9.204,0.12,13.746c-0.478,3.586-0.956,7.172-1.076,10.758c0,1.076,0.12,2.271,0.239,3.347
	c0.479,4.542,0.359,9.204,0.479,13.866c0.119,3.825,0.239,7.531,0.836,11.236c0.12,0.598,0.12,1.195,0.12,1.793
	c-0.12,4.303-0.358,8.606-0.478,12.91c-0.12,3.825-0.359,7.65-0.598,11.475c-0.12,1.673,0.12,3.347,0.478,5.021
	c0.717,3.944,1.435,7.77,1.913,11.714c0.598,4.184,0.598,8.486-0.12,12.67c-0.717,4.542-0.717,9.204-0.239,13.746
	c0.359,3.706,0.598,7.411,0.957,11.116c0.239,2.869,0.358,5.857,0.239,8.846c-0.119,3.228-0.717,6.455-1.314,9.562
	c-0.717,3.705-1.435,7.53-2.152,11.236c-0.358,2.391-0.478,4.781-0.358,7.172c0.12,4.063,0.836,8.128,1.434,12.072
	c0.359,2.749,0.717,5.618,0.837,8.367c0,0.956,0,1.912-0.239,2.869c-0.358,1.434-0.358,2.988-0.119,4.422
	c0.358,2.271,0.598,4.543,1.076,6.694c0.836,4.063,1.195,8.009,0.836,12.192c-0.239,2.749-0.717,5.617-1.195,8.367
	c-0.598,3.586-1.434,7.172-1.673,10.877c-0.239,2.63-1.076,5.021-1.913,7.411c-1.434,3.705-3.347,7.291-5.379,10.758
	c-3.347,5.379-7.172,10.279-11.355,15.061c-8.367,9.443-17.69,17.93-27.97,25.222c-3.706,2.629-7.53,4.9-11.475,7.052
	c-0.836,0.479-1.673,0.956-2.391,1.554c-2.749,2.032-5.498,4.064-8.248,6.097c-4.422,3.228-9.084,6.216-13.985,8.726
	c-2.988,1.554-6.096,2.869-9.324,3.586c-1.554,0.358-3.108,0.598-4.781,0.598c-1.913,0-3.347-0.717-4.422-2.271
	c-1.913-2.749-2.152-6.215-0.359-9.323c0.478-0.837,1.195-1.554,2.032-1.912c12.909-6.813,21.994-17.332,28.926-29.883
	c4.662-8.487,7.889-17.452,9.802-26.895c1.315-6.335,1.793-12.671,2.032-19.125c0-2.749-0.359-5.379-0.717-8.009
	c-0.478-3.107-0.478-6.335,0-9.443c0.239-1.434,0.358-2.988,0.598-4.422c0.478-3.228,0-6.455-0.957-9.562
	c-0.358-1.435-0.836-2.869-1.195-4.304c-0.717-3.347-0.598-6.693,0.12-9.921c0.359-1.435,0.598-2.749,0.957-4.184
	c0.717-2.749,0.836-5.618,0.598-8.367c-0.239-2.391-0.598-4.9-0.837-7.291c-0.239-2.75-0.598-5.499-0.717-8.248
	c-0.12-1.435,0.12-2.869,0.359-4.303c0.598-4.662,0.836-9.324,0.717-13.985c-0.239-6.097-0.836-12.192-1.434-18.288
	c-0.598-6.336-1.435-12.671-1.793-19.006c-0.359-5.14,0.12-10.279,1.076-15.42c0.837-4.063,1.673-8.128,2.51-12.072
	c0.956-4.781,0.956-9.562,0.358-14.344s-1.554-9.443-2.51-14.104c-0.717-3.706-1.195-7.292-1.554-10.997
	c-0.239-2.51,0.239-5.021,0.837-7.411c0.717-3.466,1.434-6.933,2.151-10.399c0.837-4.542,1.195-9.084,0.717-13.746
	c-0.598-5.499-1.076-11.117-0.837-16.734c0.12-2.75-0.239-5.379-0.836-8.009c-1.076-4.781-3.347-8.965-6.813-12.431
	c-2.032-2.032-4.184-3.706-6.455-5.499c-1.793-1.315-3.466-2.749-5.259-4.184c-1.435-1.195-2.75-2.51-3.945-3.944
	c-2.749-3.586-3.944-7.65-3.825-12.073c0-1.315,0.478-2.51,1.076-3.586c1.673-2.869,4.184-4.781,7.411-5.618
	c2.51-0.598,4.781-1.554,6.933-2.869c2.988-1.673,5.857-3.466,8.726-5.259c4.781-2.988,9.562-5.977,14.583-8.487
	c4.184-2.151,8.487-3.944,13.029-5.14c2.151-0.478,4.303-0.957,6.574-0.957c1.913,0,3.706-0.598,5.379-1.195
	c1.913-0.717,3.706-1.673,5.379-2.869c1.554-0.956,2.988-2.032,4.542-2.869c1.315-0.837,2.75-1.673,4.184-2.51
	c1.674-0.956,3.467-1.673,5.379-2.151c3.347-0.717,6.335-2.032,9.324-3.706c2.51-1.435,5.02-2.988,7.53-4.662
	c3.228-2.152,6.335-4.303,9.443-6.455c3.467-2.391,7.172-4.542,10.997-6.455c4.184-2.151,8.248-4.662,12.073-7.411
	c4.781-3.228,9.443-6.574,14.224-9.802c5.498-3.706,11.236-7.172,17.332-9.801c5.737-2.63,11.595-4.423,17.811-5.379
	c1.434-0.239,2.868-0.359,4.303-0.479c0.598-0.119,1.314-0.239,1.912-0.358C361.463,156.938,363.494,156.938,365.526,156.938z"/>
<path fill-rule="evenodd" clip-rule="evenodd" fill="#FFFFFF" d="M411.676,316.232c6.913,2.844,13.501,5.332,19.897,8.226
	c23.804,10.768,44.83,25.32,61.362,45.82c16.523,20.494,26.252,43.833,28.555,70.095c3.711,42.229-9.749,79.368-34.742,112.643
	c-29.753,39.61-69.716,64.642-116.498,79.471c-3.875,1.226-7.899,2.021-11.683,3.469c-6.896,2.648-13.672,0.887-20.524,0.068
	c-16.527-1.972-33.022-4.441-49.605-5.582c-21.88-1.507-43.847-2.854-65.755-2.587c-25.149,0.305-50.31,2.016-75.403,3.947
	c-17.651,1.359-35.185,4.197-52.797,6.156c-2.76,0.305-5.79-0.122-8.45-0.97c-5.06-1.619-6.197-6.215-2.704-10.18
	c1.324-1.503,2.973-2.815,4.682-3.874c37.122-22.997,58.378-56.566,65.563-99.225c1.742-10.353,2.602-20.967,2.648-31.466
	c0.252-56.391,0.521-112.785-0.103-169.167c-0.213-19.1,6.119-35.083,17.225-49.792c16.152-21.393,36.479-38.338,58.113-53.804
	c30.787-22.005,63.69-40.177,98.437-55.258c17.399-7.553,34.682-7.852,52.649-4.021c21.457,4.576,41.121,12.799,57.26,28.1
	c14.058,13.333,21.973,29.481,21.121,49.207c-0.564,13.089-5.144,24.995-11.733,36.174c-8.244,13.981-19.083,25.784-31.002,36.668
	C416.098,312.259,413.988,314.147,411.676,316.232z M191.516,559.898c2.235,0,3.357,0.063,4.472-0.01
	c18.06-1.175,36.11-3.186,54.177-3.344c22.76-0.207,45.557,0.668,68.296,1.869c27.299,1.437,54.267,5.607,80.92,11.785
	c1.507,0.35,3.569-0.146,4.929-0.982c9.352-5.736,17.676-12.74,25.153-20.776c28.349-30.47,32.034-73.889,9.336-108.609
	c-13.525-20.691-32.323-34.755-54.892-44.086c-11.877-4.912-24.283-7.956-37.042-9.634c-3.529-0.461-4.933,1.012-5.178,4.163
	c-0.167,2.147-0.138,4.313-0.189,6.473c-0.685,26.87-7.521,51.986-21.488,75.046c-17.188,28.377-41.745,48.776-70.295,64.832
	c-0.935,0.524-1.929,1.148-2.947,1.261c-1.343,0.15-3.181,0.327-3.984-0.405c-0.784-0.714-0.97-2.686-0.633-3.882
	c0.542-1.912,1.604-3.719,2.675-5.424c12.327-19.599,18.448-41.285,20.167-64.079c1.494-19.825,2.084-39.76,2.193-59.651
	c0.291-52.67,0.105-105.341,0.11-158.01c0-6.599-0.999-7.265-7.038-4.691c-0.878,0.374-1.724,0.835-2.571,1.283
	c-12.107,6.418-18.981,16.877-22.673,29.688c-3.925,13.624-4.322,27.667-4.35,41.69c-0.098,51.829,0,103.661-0.148,155.487
	c-0.019,6.077-0.762,12.213-1.78,18.218c-4.283,25.275-15.927,46.937-32.893,65.929
	C194.464,555.581,193.367,557.376,191.516,559.898z M341.573,289.281c0,18.359,0,36.718,0.002,55.075
	c0,8.239,1.236,8.925,8.615,4.924c11.007-5.968,21.272-13.017,30.475-21.497c12.852-11.829,23.802-25.07,28.71-42.265
	c4.647-16.295,1.079-30.465-12.33-41.298c-14.832-11.984-32.688-15.858-51.087-17.898c-2.256-0.25-3.658,0.975-3.955,3.248
	c-0.215,1.658-0.409,3.332-0.414,4.998C341.563,252.808,341.573,271.043,341.573,289.281z"/>
</svg>
