<?xml version="1.0" encoding="utf-8"?>
<!-- Generator: Adobe Illustrator 22.0.1, SVG Export Plug-In . SVG Version: 6.00 Build 0)  -->
<svg version="1.1" id="Layer_1" xmlns="http://www.w3.org/2000/svg" xmlns:xlink="http://www.w3.org/1999/xlink" x="0px" y="0px"
	 viewBox="0 0 512 512" style="enable-background:new 0 0 512 512;" xml:space="preserve">
<style type="text/css">
	.st0{clip-path:url(#SVGID_2_);}
	.st1{fill:#1A9BD7;}
	.st2{fill:#FCB816;}
	.st3{fill:#E43A39;}
	.st4{fill:#F58320;}
	.st5{fill:#973D97;}
	.st6{fill:#60BB47;}
	.st7{clip-path:url(#SVGID_4_);fill:#388AC9;}
	.st8{fill:none;stroke:#FFFFFF;stroke-width:8;stroke-linecap:round;stroke-linejoin:round;stroke-miterlimit:10;}
	.st9{display:none;}
	
		.st10{display:inline;opacity:0.5;fill:none;stroke:#FFFFFF;stroke-width:6;stroke-linecap:round;stroke-linejoin:round;stroke-miterlimit:10;enable-background:new    ;}
	.st11{display:inline;}
	
		.st12{opacity:0.5;fill:none;stroke:#FFFFFF;stroke-width:6;stroke-linecap:round;stroke-linejoin:round;stroke-miterlimit:10;enable-background:new    ;}
	.st13{display:inline;fill:none;stroke:#FFFFFF;stroke-width:6;stroke-miterlimit:10;}
	.st14{fill:#FFFFFF;}
	.st15{display:none;fill:#FFFFFF;}
</style>
<g>
	<defs>
		<path id="SVGID_1_" d="M443,507H69c-35.2,0-64-28.8-64-64V69C5,33.8,33.8,5,69,5h374c35.2,0,64,28.8,64,64v374
			C507,478.2,478.2,507,443,507z"/>
	</defs>
	<clipPath id="SVGID_2_">
		<use xlink:href="#SVGID_1_"  style="overflow:visible;"/>
	</clipPath>
	<g class="st0">
		<path class="st1" d="M-31.8,0.9c-2.4-1.6,6.1-1,10.3-1c190.5,0,381.1,0,571.6-0.1C564-0.2,571,0,567.8,2.3c-0.9,0.6-0.1,1.3-0.1,2
			c0,168.4-0.1,336.8,0.8,505.2c0,4-8.1,4.5-32.5,4.5c-181.3-0.2-362.7-0.2-544,0c-21.7,0-24.3-0.8-24.2-3.6
			c0.8-29.1,0.5-58.2,0.5-87.3c84.9,0,169.7,0.1,254.6,0.1h306.3c15.7,0,32.5,0.5,32.4-3.3c-1.1-27.2-1.3-54.5-1.9-81.7
			c4.3-28.5,2.3-56.9,1-85.4v-84.9c0.7-1.8,2-3.6,2-5.5c0.1-24.6,0.2-49.2,0-73.8c0-2.5-1.7-5-2.6-7.4c0.4-25.8,0.5-51.5,1.8-77.3
			c0.2-3.5-13.5-3.1-28.6-3.1C344.8,0.9,156.5,0.9-31.8,0.9z"/>
		<path class="st2" d="M568,81.2c0.9,2.5,2.6,5,2.7,7.4c0.2,24.6,0.2,49.2,0,73.8c0,1.8-1.3,3.6-2,5.5c-9.1-0.1-18.3-0.4-27.4-0.4
			h-573V81.7c4.6,0.1,9.2,0.3,13.7,0.3h559.5C550.6,82,560.1,82.2,568,81.2z"/>
		<path class="st3" d="M568.6,252.9c1.4,28.5,3.4,56.9-1,85.4c-67.4-0.1-134.7-0.3-202.1-0.2c-132.4,0-264.9,0.2-397.3,0.3v-85.8
			c132.7,0,265.4,0,398.1,0.1C433.7,252.6,501.2,252.7,568.6,252.9L568.6,252.9z"/>
		<path class="st4" d="M568.6,252.9c-67.5-0.1-134.9-0.3-202.4-0.3c-132.7-0.1-265.4-0.1-398.1-0.1v-84.8h573
			c9.1,0,18.3,0.3,27.4,0.4C568.6,196.3,568.6,224.6,568.6,252.9L568.6,252.9z"/>
		<path class="st5" d="M-31.8,338.2l397.3-0.3c67.4,0,134.7,0.2,202.1,0.2c0.5,27.2,0.8,54.5,1.9,81.7c0.2,3.8-16.9,3.3-32.8,3.3
			H226.3c-86,0-172-0.1-258-0.1C-31.8,394.8-31.8,366.5-31.8,338.2z"/>
		<path class="st6" d="M568,81.2c-7.9,1-17.4,0.8-26.6,0.8H-18.1c-4.6,0-9.2-0.2-13.7-0.3V0.9c190.8,0,381.7,0,572.5-0.1
			c15.4,0,29.2-0.4,29,3.1C568.5,29.7,568.4,55.5,568,81.2z"/>
	</g>
</g>
<g>
	<defs>
		<path id="SVGID_3_" d="M443,507H69c-35.2,0-64-28.8-64-64V69C5,33.8,33.8,5,69,5h374c35.2,0,64,28.8,64,64v374
			C507,478.2,478.2,507,443,507z"/>
	</defs>
	<clipPath id="SVGID_4_">
		<use xlink:href="#SVGID_3_"  style="overflow:visible;"/>
	</clipPath>
	<path class="st7" d="M0,0h512v512H0V0z"/>
</g>
<g>
	<path id="a" class="st8" d="M443,507H69c-35.2,0-64-28.8-64-64V69C5,33.8,33.8,5,69,5h374c35.2,0,64,28.8,64,64v374
		C507,478.2,478.2,507,443,507z"/>
</g>
<g class="st9">
	<path class="st10" d="M133.3,445V67 M378.7,445V313.8 M369.2,183.9L369.3,67 M426.6,106.4H85.4 M426.6,405.6H85.4 M193,378.1V133.9
		 M222.5,158.4h-55.1"/>
	<g class="st11">
		<path class="st12" d="M222.5,224.3h-55.1 M222.5,273.9h-55.1"/>
	</g>
	<path class="st10" d="M222.5,354.2h-55.1"/>
	<path class="st13" d="M355.4,138.3c9.2,12.7,13.7,27.9,13.7,45.7c0,18.3-4.6,33-13.9,44.1c-5.2,6.2-12.8,11.9-22.8,17.1
		c15.3,5.6,26.8,14.3,34.6,26.4c7.8,12,11.7,26.7,11.7,43.8c0,17.7-4.4,33.6-13.3,47.7c-5.7,9.3-12.7,17.2-21.2,23.5
		c-9.6,7.3-20.8,12.3-33.8,15s-27.1,4.1-42.3,4.1H133.3V106.4h144.6C314.4,106.9,340.2,117.5,355.4,138.3L355.4,138.3z M193,158.4
		v66h72.7c13,0,23.5-2.5,31.6-7.4s12.2-13.7,12.2-26.3c0-13.9-5.4-23.1-16.1-27.6c-9.2-3.1-21-4.7-35.4-4.7H193L193,158.4z
		 M193,273.9v79.8h72.6c13,0,23.1-1.8,30.3-5.3c13.1-6.5,19.7-18.9,19.7-37.4c0-15.6-6.4-26.3-19.1-32.1c-7.1-3.2-17.1-4.9-29.9-5.1
		L193,273.9L193,273.9z"/>
</g>
<path class="st14" d="M389.6,78.5c-0.1,0.7-0.2,1.3-0.3,2c-0.6,3.7-1.9,7.2-3.6,10.5c-3.4,7-7.9,13.3-13.6,18.7
	c-2.4,2.3-5.1,4.3-8.1,5.8c-2.6,1.2-5.3,1.6-8.1,1.3c-1.3-0.1-2.6-0.1-3.9-0.2c-2.3-0.2-4.7-0.4-7-0.7c-2.4-0.3-4.8-0.6-7.2-0.9
	c-2.5-0.3-5.1-0.7-7.6-1.1c-3-0.5-6-1-9-1.5c-3.2-0.5-6.4-1.1-9.6-1.6c-1.8-0.3-3.6-0.5-5.4-0.8c-0.5-0.1-1,0-1.4,0
	c-1,0-1.7,0.5-2.1,1.4c-0.3,0.7-0.5,1.5-0.6,2.3c-0.1,1.1-0.2,2.2-0.2,3.2c0,9.5,0,18.9,0,28.4c0,1,0.1,1.9,0.3,2.9
	c0.2,1.4,1.2,2.2,2.5,2.4c0.9,0.2,1.9,0.2,2.9,0.2c10.8,0,21.5,0,32.3,0c9,0,17.9,0,26.9,0c1,0,2,0.1,3,0.3c1.4,0.2,2.3,1.1,2.5,2.5
	c0.2,1.1,0.3,2.3,0.3,3.4c0,11.4,0,22.8,0,34.2c0,0.9,0,1.8-0.2,2.6c-0.3,2.2-1.1,3.1-3.4,3.4c-1,0.1-2,0.2-3,0.2
	c-19.3,0-38.7,0-58,0c-1,0-2.1,0.1-3.1,0.2c-1.5,0.2-2.4,1.1-2.7,2.6c-0.1,0.8-0.2,1.6-0.3,2.4c0,0.6,0,1.2,0,1.8
	c0,32.8,0,65.6,0,98.5c0,3.5-0.3,7-0.6,10.5c-0.4,5.4-1.4,10.8-2.6,16.1c-3,12.7-8.1,24.6-15.3,35.5c-7.3,11.1-16.2,20.6-26.6,28.8
	c-5.5,4.4-11.3,8.3-17.4,11.8c-1,0.6-2,1.1-3.2,1.4c-2.2,0.5-3.4-0.6-2.9-2.8c0.2-0.8,0.6-1.7,1-2.4c2.2-3.5,4.3-7,6.1-10.7
	c3.4-6.8,5.8-14,7.3-21.4c0.9-4.4,1.5-8.8,1.9-13.2c0.5-5.1,0.8-10.2,0.8-15.2c0.1-8.6,0.2-17.2,0.3-25.9c0-68.3,0-136.5,0-204.8
	c0-0.6,0-1.1-0.1-1.7c-0.1-1-0.8-1.5-1.8-1.3c-1.3,0.2-2.5,0.7-3.6,1.3c-7,3.4-11.9,8.9-14.9,16.1c-1.6,3.8-2.6,7.8-3.3,11.8
	c-0.7,4.2-1.1,8.5-1.2,12.7c-0.1,4.4-0.2,8.8-0.2,13.2c0,65.1,0,130.2,0,195.3c0,2.3,0,4.6-0.1,6.9c-0.3,5.8-1.3,11.5-2.9,17.1
	c-2.9,9.7-7.7,18.4-14.1,26.2c-5,6.1-10.8,11.3-17,16.1c-7.7,5.9-16,10.8-24.5,15.2c-10.6,5.5-21.6,10.1-32.7,14.5
	c-1.9,0.7-3.7,1.5-5.7,1.9c-0.1,0-0.2,0.1-0.3,0.2c-0.7,0-1.4,0-2,0c-0.3-0.1-0.6-0.2-1-0.3c-1.2-0.4-2-1.1-2.5-2.3
	c-0.1-0.2-0.2-0.3-0.3-0.5c0-0.5,0-1,0-1.5c0.1-0.1,0.2-0.3,0.3-0.4c0.6-2.1,2-3.4,3.9-4.4c0.7-0.4,1.4-0.7,2.2-1
	c7.4-3.1,14.3-6.9,20.7-11.8c7.2-5.6,13-12.2,17.2-20.3c3.9-7.5,6.1-15.6,7.2-24c0.5-4.2,0.7-8.4,0.7-12.6c0-64.5,0-129,0-193.5
	c0-4.3-0.1-8.6-0.5-12.9c-0.4-3.5-1-7-2.2-10.4c-1.5-4.1-3.8-7.7-7.3-10.4c-2.1-1.6-4.3-2.8-6.8-3.7c-1.8-0.7-3.6-1.6-5.1-2.8
	c-1-0.7-1.8-1.5-2.5-2.6c-0.5-0.7-0.8-1.5-0.9-2.4c-0.1-1.5,0.5-2.7,1.5-3.7c1.1-1.1,2.4-1.9,3.8-2.5c1.8-0.8,3.6-1.5,5.4-2.3
	c24.4-10.1,47.9-21.9,70.5-35.4c9.6-5.7,19-11.6,28.5-17.5c6.8-4.2,13.6-8.5,20.6-12.2c4.3-2.3,8.6-4.4,13.2-6
	c3.1-1.1,6.3-2,9.6-2.3c1-0.1,1.9-0.2,2.9-0.3c0.7,0,1.4,0,2,0c0.6,0.1,1.1,0.1,1.7,0.2c3.1,0.6,6.1,1.2,9.2,1.9
	c5.5,1.2,10.9,2.5,16.4,3.7c4.8,1,9.6,1.9,14.4,2.8c2.6,0.5,5.2,0.9,7.8,1.2c2.6,0.4,5.2,0.7,7.9,0.9c2.4,0.2,4.9,0.5,7.3,0.6
	c2.6,0.1,5.1,0.1,7.7,0.2c1.1,0,2.2,0.1,3.3,0.3c3.8,0.7,6.2,3.3,6.6,7.2c0,0.2,0.1,0.4,0.2,0.7C389.6,76.7,389.6,77.6,389.6,78.5z"
	/>
<path class="st15" d="M305.8,56c0.3,0.1,0.7,0.2,1,0.2c8.6,0.5,16.9,2.5,25.1,5.1c5.4,1.7,10.7,3.4,16,5.1c3.7,1.2,7.5,2.2,11.3,2.9
	c3.3,0.6,6.5,1,9.9,0.9c1.7,0,3.4,0.1,5.1,0.5c1.1,0.3,2.2,0.7,3.2,1.3c3.2,1.9,4.4,5.2,4,8.3c-0.3,2.6-1.1,5.1-2,7.5
	c-2.8,7.7-6.8,14.6-12.4,20.6c-3.2,3.4-6.9,6.2-11.2,8.2c-3.7,1.7-7.7,2.6-11.8,2.8c-1.1,0.1-2.2-0.1-3.3-0.4c-3.6-1-7.1-2-10.7-3
	c-4.9-1.4-9.8-2.6-14.8-3.4c-3-0.5-6.1-0.8-9.1-0.8c-1.6,0-3,0.5-4.3,1.5c-1.3,1-2.2,2.3-3.1,3.7c-1.3,2.1-2.2,4.4-2.9,6.7
	c-1.1,3.5-1.8,7.1-2.2,10.7c-0.3,2.6-0.5,5.3-0.3,7.9c0.3,3.9,2.2,6.8,5.7,8.6c2.8,1.5,5.8,2,9,1.6c2.9-0.4,5.8-0.6,8.7-1
	c2.1-0.3,4.2-0.3,6.3-0.1c2.8,0.2,5.6,0.4,8.4,0.6c4.2,0.3,8.3-0.1,12.4-0.9c4.1-0.8,8.2-0.4,12.1,1.1c3.1,1.1,5.4,3.2,7.2,5.9
	c1.4,2.2,2.3,4.6,3,7.2c0.8,3.2,1.3,6.4,1.6,9.6c0.4,4.4,0.5,8.9,0.6,13.4c0.1,6.5-4.1,10.7-8.9,12.2c-1.9,0.6-3.9,0.9-5.9,0.6
	c-3.3-0.5-6.7-0.5-10.1-0.4c-4.5,0.1-8.9,0.4-13.4,0.5c-1.1,0-2.2,0-3.3,0c-5.3-0.3-10.6-0.4-15.9,0.3c-2.9,0.4-5.8,1-8.6,2
	c-1.9,0.7-3.8,1.6-5.4,2.9c-2.1,1.7-3.5,4-3.9,6.7c-0.1,0.8-0.2,1.6-0.1,2.4c0.4,3.2,0.9,6.3,1.3,9.5c0.4,2.9,0.8,5.8,1,8.6
	c0.3,3.1,0.5,6.3,0.7,9.4c0.2,3.8,0.3,7.5-0.2,11.3c-0.3,2.2-0.7,4.5-1,6.7c-0.6,4-1.2,7.9-1,12c0.2,2.7,0.4,5.4,0.7,8.1
	c0.4,4.1,0.9,8.3,0.7,12.4c-0.1,1.6-0.3,3.2-0.4,4.8c0,0.5-0.1,1-0.1,1.5c0.1,1.8,0.2,3.5,0.4,5.2c0.2,2.8,0.5,5.7,0.5,8.5
	c0,6.8-1.1,13.4-3.2,19.8c-1.4,4.2-3,8.3-4.5,12.4c-0.7,1.9-1.4,3.8-2,5.6c-1.2,3.5-2.8,6.9-4.7,10.1c-2.5,4.2-5.4,8.2-8.3,12.2
	c-3.5,4.9-7,9.7-10.6,14.6c-0.5,0.7-1.1,1.4-1.7,2.1c-4.7,5.1-9.8,9.7-15.5,13.7c-2.2,1.5-4.4,2.9-6.9,4c-1.6,0.7-3.2,1.3-4.9,1.5
	c-1,0.1-1.9,0-2.8-0.2c-1.4-0.3-2.2-1.2-2.6-2.6c-0.4-1.5-0.2-2.9,0.1-4.3c0.4-1.8,1.1-3.6,1.8-5.2c1.5-3.3,3-6.5,4.6-9.8
	c1.9-3.9,3.8-7.8,5.4-11.9c1.1-2.8,2-5.6,2.4-8.5c0.2-1.5,0.2-3,0-4.5c-0.2-1.3-0.3-2.6-0.5-3.9c-0.5-3.1-0.3-6.2,0.5-9.2
	c0.3-1.2,0.6-2.3,1-3.5c1-3.4,1.2-6.8,0.9-10.3c-0.2-2-0.2-4.1-0.2-6.2c0-1.2,0.2-2.5,0.4-3.7c0.8-3.8,0.4-7.5-0.6-11.1
	c-0.6-2.2-1.2-4.5-1.7-6.7c-0.6-2.3-0.6-4.6-0.4-7c0.3-3.7,0.5-7.4-0.1-11.1c-0.4-2.8-0.5-5.7-0.4-8.6c0.1-3.3,0.2-6.5,0.2-9.8
	c0.1-4,0.1-8-0.4-12c-0.1-0.7,0-1.4,0-2.1c0.2-2.5,0.7-4.8,1.2-7.3c0.4-1.9,0.7-3.7,1-5.6c0.3-2.4,0-4.8-0.3-7.2
	c-0.2-1.4-0.4-2.8-0.5-4.2c-0.2-2.6,0.4-5.1,1-7.6c0.6-2.2,1.2-4.4,1.8-6.7c0.3-1.4,0.5-2.9,0.5-4.3c0-5-0.3-9.9-0.8-14.9
	c-0.4-4.2-1.1-8.3-1.8-12.5c-0.6-3.9-1.1-7.8-1.2-11.8c-0.1-1.9,0-3.7,0.4-5.5c0.7-3.3,0.6-6.6-0.1-9.8c-0.6-2.7-0.9-5.4-0.7-8.2
	c0.2-2.2,0.6-4.3,1-6.4c0.6-2.6,1.2-5.3,1.8-7.9c0.6-2.8,0.5-5.6,0-8.4c-0.4-2.2-0.9-4.4-1.2-6.7c-0.2-1.3-0.3-2.6-0.3-3.9
	c0-0.8,0.2-1.6,0.4-2.4c0.1-0.8,0.4-1.6,0.5-2.3c0.2-1.4-0.2-2.7-1.3-3.7c-0.5-0.5-1.1-0.7-1.8-0.4c-0.8,0.3-1.6,0.6-2.3,1.1
	c-1.9,1-3.6,2.4-5.2,3.8c-4.4,3.8-8.1,8.2-10.7,13.4c-1.3,2.7-2.3,5.4-2.8,8.4c-0.3,2.1-0.5,4.2,0,6.3c0.3,1.3,0.3,2.7,0.1,4
	c-0.3,2.2-0.6,4.5-1,6.7c-0.4,2.8-0.9,5.5-0.8,8.4c0.1,4-0.4,8-1.3,11.9c-0.6,2.9-0.9,5.8-0.5,8.7c0.2,1.2,0.4,2.5,0.6,3.7
	c0.9,3.8,0.7,7.7,0.1,11.5c-0.4,3-0.8,6-0.9,9c0,0.9,0.1,1.9,0.2,2.8c0.4,3.8,0.3,7.7,0.4,11.6c0.1,3.2,0.2,6.3,0.7,9.4
	c0.1,0.5,0.1,1,0.1,1.5c-0.1,3.6-0.3,7.2-0.4,10.8c-0.1,3.2-0.3,6.4-0.5,9.6c-0.1,1.4,0.1,2.8,0.4,4.2c0.6,3.3,1.2,6.5,1.6,9.8
	c0.5,3.5,0.5,7.1-0.1,10.6c-0.6,3.8-0.6,7.7-0.2,11.5c0.3,3.1,0.5,6.2,0.8,9.3c0.2,2.4,0.3,4.9,0.2,7.4c-0.1,2.7-0.6,5.4-1.1,8
	c-0.6,3.1-1.2,6.3-1.8,9.4c-0.3,2-0.4,4-0.3,6c0.1,3.4,0.7,6.8,1.2,10.1c0.3,2.3,0.6,4.7,0.7,7c0,0.8,0,1.6-0.2,2.4
	c-0.3,1.2-0.3,2.5-0.1,3.7c0.3,1.9,0.5,3.8,0.9,5.6c0.7,3.4,1,6.7,0.7,10.2c-0.2,2.3-0.6,4.7-1,7c-0.5,3-1.2,6-1.4,9.1
	c-0.2,2.2-0.9,4.2-1.6,6.2c-1.2,3.1-2.8,6.1-4.5,9c-2.8,4.5-6,8.6-9.5,12.6c-7,7.9-14.8,15-23.4,21.1c-3.1,2.2-6.3,4.1-9.6,5.9
	c-0.7,0.4-1.4,0.8-2,1.3c-2.3,1.7-4.6,3.4-6.9,5.1c-3.7,2.7-7.6,5.2-11.7,7.3c-2.5,1.3-5.1,2.4-7.8,3c-1.3,0.3-2.6,0.5-4,0.5
	c-1.6,0-2.8-0.6-3.7-1.9c-1.6-2.3-1.8-5.2-0.3-7.8c0.4-0.7,1-1.3,1.7-1.6c10.8-5.7,18.4-14.5,24.2-25c3.9-7.1,6.6-14.6,8.2-22.5
	c1.1-5.3,1.5-10.6,1.7-16c0-2.3-0.3-4.5-0.6-6.7c-0.4-2.6-0.4-5.3,0-7.9c0.2-1.2,0.3-2.5,0.5-3.7c0.4-2.7,0-5.4-0.8-8
	c-0.3-1.2-0.7-2.4-1-3.6c-0.6-2.8-0.5-5.6,0.1-8.3c0.3-1.2,0.5-2.3,0.8-3.5c0.6-2.3,0.7-4.7,0.5-7c-0.2-2-0.5-4.1-0.7-6.1
	c-0.2-2.3-0.5-4.6-0.6-6.9c-0.1-1.2,0.1-2.4,0.3-3.6c0.5-3.9,0.7-7.8,0.6-11.7c-0.2-5.1-0.7-10.2-1.2-15.3
	c-0.5-5.3-1.2-10.6-1.5-15.9c-0.3-4.3,0.1-8.6,0.9-12.9c0.7-3.4,1.4-6.8,2.1-10.1c0.8-4,0.8-8,0.3-12c-0.5-4-1.3-7.9-2.1-11.8
	c-0.6-3.1-1-6.1-1.3-9.2c-0.2-2.1,0.2-4.2,0.7-6.2c0.6-2.9,1.2-5.8,1.8-8.7c0.7-3.8,1-7.6,0.6-11.5c-0.5-4.6-0.9-9.3-0.7-14
	c0.1-2.3-0.2-4.5-0.7-6.7c-0.9-4-2.8-7.5-5.7-10.4c-1.7-1.7-3.5-3.1-5.4-4.6c-1.5-1.1-2.9-2.3-4.4-3.5c-1.2-1-2.3-2.1-3.3-3.3
	c-2.3-3-3.3-6.4-3.2-10.1c0-1.1,0.4-2.1,0.9-3c1.4-2.4,3.5-4,6.2-4.7c2.1-0.5,4-1.3,5.8-2.4c2.5-1.4,4.9-2.9,7.3-4.4
	c4-2.5,8-5,12.2-7.1c3.5-1.8,7.1-3.3,10.9-4.3c1.8-0.4,3.6-0.8,5.5-0.8c1.6,0,3.1-0.5,4.5-1c1.6-0.6,3.1-1.4,4.5-2.4
	c1.3-0.8,2.5-1.7,3.8-2.4c1.1-0.7,2.3-1.4,3.5-2.1c1.4-0.8,2.9-1.4,4.5-1.8c2.8-0.6,5.3-1.7,7.8-3.1c2.1-1.2,4.2-2.5,6.3-3.9
	c2.7-1.8,5.3-3.6,7.9-5.4c2.9-2,6-3.8,9.2-5.4c3.5-1.8,6.9-3.9,10.1-6.2c4-2.7,7.9-5.5,11.9-8.2c4.6-3.1,9.4-6,14.5-8.2
	c4.8-2.2,9.7-3.7,14.9-4.5c1.2-0.2,2.4-0.3,3.6-0.4c0.5-0.1,1.1-0.2,1.6-0.3C302.4,56,304.1,56,305.8,56z"/>
</svg>
